ModelForces
version=1
nRows=4
nColumns=155
inDegrees=no

This file contains the forces exerted on a model during a simulation.

A force is a generalized force, meaning that it can be either a force (N) or a torque (Nm).

Units are S.I. units (second, meters, Newtons, ...)
Angles are in degrees.

endheader
time	glut_med1_r	glut_med2_r	glut_med3_r	glut_min1_r	glut_min2_r	glut_min3_r	semimem_r	semiten_r	bifemlh_r	bifemsh_r	sar_r	add_long_r	add_brev_r	add_mag1_r	add_mag2_r	add_mag3_r	tfl_r	pect_r	grac_r	glut_max1_r	glut_max2_r	glut_max3_r	iliacus_r	psoas_r	quad_fem_r	gem_r	peri_r	rect_fem_r	vas_med_r	vas_int_r	vas_lat_r	med_gas_r	lat_gas_r	soleus_r	tib_post_r	flex_dig_r	flex_hal_r	tib_ant_r	per_brev_r	per_long_r	per_tert_r	ext_dig_r	ext_hal_r	glut_med1_l	glut_med2_l	glut_med3_l	glut_min1_l	glut_min2_l	glut_min3_l	semimem_l	semiten_l	bifemlh_l	bifemsh_l	sar_l	add_long_l	add_brev_l	add_mag1_l	add_mag2_l	add_mag3_l	tfl_l	pect_l	grac_l	glut_max1_l	glut_max2_l	glut_max3_l	iliacus_l	psoas_l	quad_fem_l	gem_l	peri_l	rect_fem_l	vas_med_l	vas_int_l	vas_lat_l	med_gas_l	lat_gas_l	soleus_l	tib_post_l	flex_dig_l	flex_hal_l	tib_ant_l	per_brev_l	per_long_l	per_tert_l	ext_dig_l	ext_hal_l	ercspn_r	ercspn_l	intobl_r	intobl_l	extobl_r	extobl_l	femur_lat_meniscii_r.femur_lat_r.force.X	femur_lat_meniscii_r.femur_lat_r.force.Y	femur_lat_meniscii_r.femur_lat_r.force.Z	femur_lat_meniscii_r.femur_lat_r.torque.X	femur_lat_meniscii_r.femur_lat_r.torque.Y	femur_lat_meniscii_r.femur_lat_r.torque.Z	femur_lat_meniscii_r.meniscus_lat_r.force.X	femur_lat_meniscii_r.meniscus_lat_r.force.Y	femur_lat_meniscii_r.meniscus_lat_r.force.Z	femur_lat_meniscii_r.meniscus_lat_r.torque.X	femur_lat_meniscii_r.meniscus_lat_r.torque.Y	femur_lat_meniscii_r.meniscus_lat_r.torque.Z	femur_med_meniscii_r.femur_med_r.force.X	femur_med_meniscii_r.femur_med_r.force.Y	femur_med_meniscii_r.femur_med_r.force.Z	femur_med_meniscii_r.femur_med_r.torque.X	femur_med_meniscii_r.femur_med_r.torque.Y	femur_med_meniscii_r.femur_med_r.torque.Z	femur_med_meniscii_r.meniscus_med_r.force.X	femur_med_meniscii_r.meniscus_med_r.force.Y	femur_med_meniscii_r.meniscus_med_r.force.Z	femur_med_meniscii_r.meniscus_med_r.torque.X	femur_med_meniscii_r.meniscus_med_r.torque.Y	femur_med_meniscii_r.meniscus_med_r.torque.Z	femur_med_tibia_r.tibia_upper_r.force.X	femur_med_tibia_r.tibia_upper_r.force.Y	femur_med_tibia_r.tibia_upper_r.force.Z	femur_med_tibia_r.tibia_upper_r.torque.X	femur_med_tibia_r.tibia_upper_r.torque.Y	femur_med_tibia_r.tibia_upper_r.torque.Z	femur_med_tibia_r.femur_med_r.force.X	femur_med_tibia_r.femur_med_r.force.Y	femur_med_tibia_r.femur_med_r.force.Z	femur_med_tibia_r.femur_med_r.torque.X	femur_med_tibia_r.femur_med_r.torque.Y	femur_med_tibia_r.femur_med_r.torque.Z	femur_lat_tibia_r.tibia_upper_r.force.X	femur_lat_tibia_r.tibia_upper_r.force.Y	femur_lat_tibia_r.tibia_upper_r.force.Z	femur_lat_tibia_r.tibia_upper_r.torque.X	femur_lat_tibia_r.tibia_upper_r.torque.Y	femur_lat_tibia_r.tibia_upper_r.torque.Z	femur_lat_tibia_r.femur_lat_r.force.X	femur_lat_tibia_r.femur_lat_r.force.Y	femur_lat_tibia_r.femur_lat_r.force.Z	femur_lat_tibia_r.femur_lat_r.torque.X	femur_lat_tibia_r.femur_lat_r.torque.Y	femur_lat_tibia_r.femur_lat_r.torque.Z	aACL_R	pACL_R	aPCL_R	pPCL_R	aMCL_R	mMCL_R	pMCL_R	aLCL_R	mLCL_R	pLCL_R	aPCL_L	pPCL_L	aMCL_L	aLCL_L
      0.17392771	     10.99561750	      8.03368658	      8.63665657	      3.71508236	      4.32778220	      4.65457689	      0.00000000	    176.45592496	    145.95454362	    301.88437376	    133.13427549	      7.99203962	      5.76806855	      4.05639608	      3.50074947	      5.88330990	      4.39578242	      3.13501614	    104.04947151	      5.18648773	      7.88927858	      5.92510493	     26.97275660	     17.87422479	      5.10456365	      3.56130126	      6.12698835	     61.37387082	     31.24570319	     32.53468787	     43.93999541	      0.00000000	      0.00000000	      0.00000000	      0.00000000	      0.00000000	      0.00000000	     39.39979337	      2.57013639	      3.16675669	     50.15061579	     42.77757395	     11.91068445	     10.99561750	      8.03368658	      8.63665657	      3.71508236	      4.32778220	      4.65457689	      2.21891976	      5.93878474	     11.72347116	     10.15954715	      2.12010194	      7.99203962	      5.76806855	      4.05639608	      3.50074947	      5.88330990	      5.27022695	      3.13501614	      2.18722336	      5.18648773	      7.88927858	      5.92510493	     26.97275660	     17.87422479	      5.10456365	      3.56130126	      6.12698835	     16.28141387	      0.00000000	      0.00000000	      0.00000000	     20.89397424	      9.84071733	     48.96095045	     50.03885479	      5.22212373	      4.66246296	     12.69671266	      6.77548687	     17.60309425	      2.76396713	      8.48865214	      2.67681839	     34.96603869	     34.96603869	     12.95361175	     12.95361175	     30.36651822	     30.36651822	     34.84832848	    158.35299826	     25.12928821	    -13.99364628	      0.94394817	     12.93478903	    -34.84832848	   -158.35299826	    -25.12928821	      4.52040825	     -1.57630252	      4.18713315	     14.69215370	      7.34240825	     -0.91322391	      0.51528981	     -0.31520400	      5.88375603	    -14.69215370	     -7.34240825	      0.91322391	     -0.14773509	      0.30980892	     -0.01382924	   -397.30747238	   -629.34801518	    185.64988157	    -13.02410804	     11.03101722	      9.34173051	    397.30747238	    629.34801518	   -185.64988157	     86.20954555	     -7.52352580	    159.17199918	    -29.84145632	   -155.41897429	    -37.04864530	      4.59508389	     -1.83690885	      4.02531709	     29.84145632	    155.41897429	     37.04864530	    -18.70044884	      0.94290822	     11.08641748	      3.31407913	      0.00000000	    334.62553909	    200.64437252	      0.00000000	      0.00000000	      0.00000000	      0.00000000	      0.00000000	      0.00000000	      0.00000000	      0.00000000	      0.00000001	      0.00000000
      0.17417427	     10.98472400	      8.02601261	      8.62830684	      3.71168016	      4.32406333	      4.64982328	      0.00000000	    176.69122084	    145.57295463	    301.68375017	    133.22706517	      7.98431691	      5.76283546	      4.05568293	      3.49734377	      5.87713645	      4.39554061	      3.13212480	    104.13648095	      5.18151596	      7.88169816	      5.91932122	     26.95863919	     17.85813084	      5.09978681	      3.55897548	      6.12361327	     61.58699401	     30.48119553	     32.51224379	     43.92588063	      0.00000000	      0.00000000	      0.00000000	      0.00000000	      0.00000000	      0.00000000	     39.42724109	      2.58224023	      3.19277364	     23.20899936	     42.97232561	     12.03592162	     10.98472400	      8.02601261	      8.62830684	      3.71168016	      4.32406333	      4.64982328	      2.50317411	      5.93274224	     11.71126462	     10.15002942	      2.11816947	      7.98431691	      5.76283546	      4.05568293	      3.49734377	      5.87713645	      5.26641711	      3.13212480	      2.18519457	      5.18151596	      7.88169816	      5.91932122	     26.95863919	     17.85813084	      5.09978681	      3.55897548	      6.12361327	     16.26347836	      0.00000000	      0.00000000	      0.00000000	     20.88551145	      9.83597474	     48.91393482	     50.01558559	      5.21577234	      4.65632415	     12.68333237	      6.76793336	     17.58852975	      2.76148707	      8.48146308	      2.67490236	     34.93394524	     34.93394524	     12.94075124	     12.94075124	     30.35487670	     30.35487670	     34.95651961	    157.86452428	     25.06848817	    -13.95707772	      0.94443732	     12.97576703	    -34.95651961	   -157.86452428	    -25.06848817	      4.50573317	     -1.57648340	      4.18377451	     15.06017225	      7.48821211	     -0.95493223	      0.53512551	     -0.32359713	      6.03090061	    -15.06017225	     -7.48821211	      0.95493223	     -0.15108690	      0.31852530	     -0.01402479	   -401.56050008	   -630.38616168	    186.30195729	    -13.05406934	     11.13081243	      9.33703566	    401.56050008	    630.38616168	   -186.30195729	     86.50100310	     -7.60965108	    160.88704197	    -30.19732336	   -154.26726270	    -36.73783416	      4.55752876	     -1.83697851	      3.99142555	     30.19732336	    154.26726270	     36.73783416	    -18.54553209	      0.94811454	     11.23872846	      3.20517923	      0.00000000	    337.97674675	    202.32836316	      0.00000000	      0.00000000	      0.00000000	      0.00000000	      0.00000000	      0.00000000	      0.00000000	      0.00000000	      0.00000001	      0.00000000
      0.17442084	     10.97385935	      8.01836394	      8.61998469	      3.70828906	      4.32035670	      4.64508527	      0.00000000	    176.92352889	    145.20088296	    301.48708214	    133.31875668	      7.97661973	      5.75761941	      4.05484725	      3.49394934	      5.87098337	      4.39542851	      3.12924291	    104.22213072	      5.17656066	      7.87414284	      5.91355670	     26.94456892	     17.84209080	      5.09502564	      3.55665754	      6.12022310	     61.81630540	     30.38229547	     32.49805673	     43.90219489	      0.00000000	      0.00000000	      0.00000000	      0.00000000	      0.00000000	      0.00000000	     39.45372814	      2.59442878	      3.21889263	     23.01333877	     43.10070442	     12.07383511	     10.97385935	      8.01836394	      8.61998469	      3.70828906	      4.32035670	      4.64508527	      2.77015134	      5.92671977	     11.69908747	     10.14054294	      2.11624330	      7.97661973	      5.75761941	      4.05484725	      3.49394934	      5.87098337	      5.26261971	      3.12924291	      2.18317243	      5.17656066	      7.87414284	      5.91355670	     26.94456892	     17.84209080	      5.09502564	      3.55665754	      6.12022310	     16.24559956	      0.00000000	      0.00000000	      0.00000000	     20.87699347	      9.83120955	     48.86697666	     49.99237846	      5.20939985	      4.65015707	     12.66999037	      6.76040172	     17.57399715	      2.75901531	      8.47435314	      2.67301380	     34.90195661	     34.90195661	     12.92793331	     12.92793331	     30.34327418	     30.34327418	     35.75720440	    157.08699060	     24.55192055	    -13.71861206	      0.96527100	     13.30915645	    -35.75720440	   -157.08699060	    -24.55192055	      4.46561375	     -1.58786041	      4.15025361	     15.39489532	      7.41550249	     -0.94098571	      0.52897007	     -0.33077221	      6.16712915	    -15.39489532	     -7.41550249	      0.94098571	     -0.15044069	      0.32481715	     -0.02116924	   -405.86963422	   -631.70146304	    186.56935458	    -13.07789196	     11.22092298	      9.34124840	    405.86963422	    631.70146304	   -186.56935458	     86.63758681	     -7.69495263	    162.62165054	    -30.60693350	   -153.07970172	    -36.43920529	      4.51940250	     -1.83914703	      3.95489641	     30.60693350	    153.07970172	     36.43920529	    -18.39480934	      0.95506840	     11.41366452	      3.10460365	      0.00000000	    341.33647972	    204.04094945	      0.00000000	      0.00000000	      0.00000000	      0.00000000	      0.00000000	      0.00000000	      0.00000000	      0.00000000	      0.00000001	      0.00000000
      0.17480028	     10.95719591	      8.00664237	      8.60723116	      3.70309202	      4.31467627	      4.63782419	      0.00000000	    177.27453243	    144.64759277	    301.19865302	    133.45688859	      7.96482394	      5.74962543	      4.05333400	      3.48874748	      5.86155386	      4.39552965	      3.12482630	    104.35067589	      5.16896680	      7.86256454	      5.90472279	     26.92300745	     17.81751121	      5.08772905	      3.55310564	      6.11497686	     62.17317482	     30.35278262	     32.47619254	     43.86015399	      0.00000000	      0.00000000	      0.00000000	      0.00000000	      0.00000000	      0.00000000	     39.49332896	      2.61302380	      3.25899427	      0.00000000	     43.29400956	     12.12310514	     10.95719591	      8.00664237	      8.60723116	      3.70309202	      4.31467627	      4.63782419	      3.15207273	      5.91749056	     11.68040517	     10.12600474	      2.11329132	      7.96482394	      5.74962543	      4.05333400	      3.48874748	      5.86155386	      5.25679999	      3.12482630	      2.18007343	      5.16896680	      7.86256454	      5.90472279	     26.92300745	     17.81751121	      5.08772905	      3.55310564	      6.11497686	     16.21819572	      0.00000000	      0.00000000	      0.00000000	     20.86377823	      9.82383268	     48.79482532	     49.95678544	      5.19955201	      4.64061144	     12.64953270	      6.74885370	     17.55169496	      2.75522755	      8.46356400	      2.67016026	     34.85293231	     34.85293231	     12.90829027	     12.90829027	     30.32549456	     30.32549456	     36.97864693	    156.09003508	     24.66470501	    -13.74301696	      0.99771036	     13.81776767	    -36.97864693	   -156.09003508	    -24.66470501	      4.44320924	     -1.62637411	      4.10348673	     15.89635745	      7.55146457	     -0.98017304	      0.54751705	     -0.34225872	      6.36805542	    -15.89635745	     -7.55146457	      0.98017304	     -0.15347513	      0.33634880	     -0.02305057	   -411.95168151	   -633.72920464	    187.21050146	    -13.11969952	     11.36168953	      9.36431682	    411.95168151	    633.72920464	   -187.21050146	     86.94226082	     -7.82214102	    165.06202821	    -30.82344093	   -151.24157365	    -35.89762475	      4.45813936	     -1.83126710	      3.90987176	     30.82344093	    151.24157365	     35.89762475	    -18.12839620	      0.95720323	     11.51062341	      2.94175155	      0.00000000	    346.53352595	    206.75557907	      0.00000000	      0.00000000	      0.00000000	      0.00000000	      0.00000000	      0.00000000	      0.00000000	      0.00000000	      0.00000001	      0.00000000
